<svg version="1.1" viewBox="0.0 0.0 517.8267716535433 518.4776902887139" fill="none" stroke="none" stroke-linecap="square" stroke-miterlimit="10" xmlns:xlink="http://www.w3.org/1999/xlink" xmlns="http://www.w3.org/2000/svg"><clipPath id="p.0"><path d="m0 0l517.8268 0l0 518.47766l-517.8268 0l0 -518.47766z" clip-rule="nonzero"/></clipPath><g clip-path="url(#p.0)"><path fill="#000000" fill-opacity="0.0" d="m0 0l517.8268 0l0 518.47766l-517.8268 0z" fill-rule="evenodd"/><path fill="#9f7547" d="m11.1640415 324.86484l-5.9999995 -22.501312l-3.5013123 -17.498688l-1.4986876 -21.0l0.49868768 -21.000015l3.0 -16.0l4.9999995 -23.0l8.501312 -25.501312l6.0 -11.0l7.4986877 -0.49868774l6.000002 4.0l18.0 11.498688l5.0 5.5013123l-1.4986877 7.4986877l-7.0 7.5013123l-2.0 14.498688l6.4986877 12.0l10.999996 8.501312l13.501312 4.0l20.0 5.0l11.498688 1.0l18.000008 -2.0l8.501312 5.4986877l2.4986877 7.0000153l-5.4986877 4.0l-10.000008 6.5013123l-10.501312 3.4986877l-17.0 7.0l-12.0 8.501312l-6.4986877 5.4986877l-12.501312 7.5013123l-16.498684 6.0l-13.501312 8.0l-11.49869 6.0z" fill-rule="evenodd"/><path fill="#4b261b" d="m184.18156 114.24602l-6.14563 -20.143448l5.8500366 -20.009079l34.334366 -18.074837l18.582565 3.4385376l20.896225 29.307632l-6.4605103 23.232643l-13.072693 14.621101l-38.903244 0.48721313z" fill-rule="evenodd"/><path stroke="#ffffff" stroke-width="4.0" stroke-linejoin="round" stroke-linecap="butt" d="m184.18156 114.24602l-6.14563 -20.143448l5.8500366 -20.009079l34.334366 -18.074837l18.582565 3.4385376l20.896225 29.307632l-6.4605103 23.232643l-13.072693 14.621101l-38.903244 0.48721313z" fill-rule="evenodd"/><path fill="#9f7547" d="m149.16405 37.363518l-10.501312 -4.0l-10.498688 8.0l-20.000008 12.501312l-18.501312 15.498688l-11.498688 10.0l-20.501308 15.0l-7.0 15.0l-14.0 21.999992l-8.49869 15.501312l5.000002 4.0l18.0 10.498688l11.498688 12.501312l12.501308 9.0l13.498688 4.0l20.501312 0l10.498688 1.4986877l11.000008 6.5013123l8.0 11.0l2.5013123 11.0l2.4986877 9.498688l-5.0 7.0l3.0 5.0l7.5013123 4.5013123l2.0 -9.501312l0.49868774 -28.0l-1.4986877 -20.498688l-1.5013123 -28.0l1.0 -13.501312l1.5013123 -20.999992l-1.5013123 -26.0l0 -22.0l-2.0 -14.0z" fill-rule="evenodd"/><path fill="#9f7547" d="m161.66273 33.86483l12.0 -12.501312l32.0 -7.000001l23.501312 -6.0l17.498688 -2.9999995l33.501297 0l27.0 2.9999995l17.498688 3.5013123l21.0 8.498689l11.501312 3.5013123l21.0 7.0l12.498688 9.498688l11.0 12.0l25.0 16.501312l11.501312 18.498688l7.4986877 8.0l-13.498688 10.501312l-20.501312 8.0l-17.498688 7.4986877l-11.501312 3.0l-19.498688 -2.0l-23.0 -3.4986877l-20.501312 -2.0l-7.4986877 5.4986877l-6.5013123 8.501305l-2.0 15.0l-2.4986877 20.498688l-1.5013123 8.0l-10.498688 7.5013123l-15.0 5.4986877l-15.501312 8.501312l-18.999985 -3.0l-13.498688 3.0l-13.501312 8.0l-7.0 11.0l-1.0 7.4986877l-19.0 12.0l-15.498688 4.0l-7.5013123 -5.0l-0.49868774 -18.0l3.0 -25.0l-2.0 -21.0l-0.50131226 -24.0l0.50131226 -11.498688l1.0 -25.999992l-1.0 -25.501312l-0.50131226 -25.0z" fill-rule="evenodd"/><path fill="#9f7547" d="m165.16405 284.61285l4.7480316 -7.0l12.0 12.251984l22.501312 15.748016l16.498688 9.750671l14.251968 15.249329l14.498688 11.501312l2.5013123 9.750671l-11.0 14.0l-8.0 16.0l-1.7506561 15.0l6.249344 13.748016l7.0 9.251984l10.501312 5.7480164l15.748032 -3.4986877l16.251953 -8.750641l11.0 -11.750671l13.748047 -7.0l12.501312 8.750671l21.498688 16.249329l22.0 19.251984l13.0 11.748016l12.0 9.0l3.2519531 11.0l-17.0 9.251984l-17.75064 12.249329l-19.501312 11.498688l-18.748047 6.2519836l-27.0 1.4986877l-38.0 0.50131226l-26.999985 1.2493591l-18.750656 -2.2493591l-13.249344 -7.7506714l-15.0 -6.5013123l-17.0 -10.498688l-1.5013123 -9.249329l2.0 -29.251984l-0.24934387 -15.748016l-3.0 -19.501312l1.7506561 -16.750671l1.7480316 -30.249329l-2.2493439 -17.0l-3.4986877 -24.498688l2.4986877 -24.0z" fill-rule="evenodd"/><path fill="#9f7547" d="m175.66273 263.36353l1.0 -6.0l11.501312 -7.0000153l16.0 -7.0l7.0 11.0l6.0 15.000015l9.498688 9.501312l22.501312 5.4986877l18.999985 -2.0l7.4986877 -20.498688l4.0 -19.501328l-7.0 -16.498688l-3.4986877 -18.0l20.0 -11.501312l26.0 -8.498688l14.498688 4.4986877l25.501312 5.0l12.498688 -3.0l14.0 -10.0l11.0 -9.498688l5.0 -19.501312l1.0 -14.0l14.501312 -10.498688l28.498688 -12.999992l21.0 -2.0l17.501312 15.999992l12.0 26.498688l12.498688 39.501312l2.0 16.0l6.501343 35.498688l-0.5013428 16.501328l2.0 28.498688l-78.0 -10.498688l-2.4986877 -27.501312l-12.0 -11.498703l-15.501312 1.0l-20.0 7.4986877l-4.0 11.000015l-5.4986877 18.501312l-0.50131226 12.0l2.0 16.498688l2.5013123 12.501312l10.0 6.4986877l16.0 8.501312l11.0 -1.5013123l5.0 -12.498688l11.0 -6.5013123l5.0 -17.0l62.0 48.501312l-14.501312 19.0l-2.0 11.498688l-0.49868774 13.0l-9.501312 16.0l-12.0 9.501312l-8.0 15.0l-23.0 8.498688l-12.498688 8.0l-14.501312 -0.49868774l-18.0 -14.501312l-15.498688 -11.0l-14.0 -8.0l-11.501312 -14.498688l-15.498688 -12.0l-15.0 -15.501312l-5.0 -14.0l-3.0 -10.0l-12.501312 -7.4986877l-15.498688 -5.5013123l-11.501312 0.50131226l-9.498688 -6.0l-14.999985 -13.501312l-11.501312 -6.4986877l-11.498688 -11.0l-16.0 -11.0l-11.501312 -6.5013123l-10.0 -11.498688z" fill-rule="evenodd"/><path fill="#9f7547" d="m19.66273 349.86484l17.000002 -20.501312l20.501312 -9.498688l23.498684 -10.501312l27.501312 -17.498688l16.0 -7.5013123l18.498695 -8.0l7.5013123 2.5013123l2.4986877 24.498688l-0.49868774 22.501312l-3.5013123 14.498688l-9.498688 -6.0l-9.501312 -18.498688l-14.498695 -1.0l-16.501312 10.498688l-6.0 14.0l-5.0 22.0l1.5013123 13.0l9.0 9.501312l14.0 9.0l11.0 -7.5013123l10.498695 -13.498688l4.0 -8.0l16.501312 -2.5013123l-2.5013123 16.501312l0 21.0l2.0 18.498688l2.0 17.0l-4.0 20.0l0 9.0l2.5013123 20.0l-16.0 -2.0l-23.50132 -11.498688l-21.0 -12.0l-19.498688 -19.501312l-20.501308 -23.0l-10.498688 -27.0l-11.501314 -17.498688z" fill-rule="evenodd"/><path fill="#9f7547" d="m150.66273 313.86484l4.0 39.499176l-1.0 29.800812l-4.0 16.632019l-11.0 -32.572845l0 -32.569183z" fill-rule="evenodd"/><path fill="#9f7547" d="m510.66272 263.86484l7.0 34.498688l-8.498688 24.0l-2.0 22.501312l-10.501312 10.498688l-58.0 -53.0l-3.4986877 -23.498688l13.0 -16.0z" fill-rule="evenodd"/><path fill="#4b261b" d="m64.894936 195.38872l32.174896 -2.0252075l21.278313 1.0126038l17.123993 12.151199l5.189499 16.706573l-8.8207855 9.113403l-17.644302 7.595825l-21.278313 -1.5202332l-17.644302 -5.0629883l-19.7201 -14.681381l-3.6312866 -8.608429z" fill-rule="evenodd"/><path fill="#4b261b" d="m110.81016 322.99042l-16.251457 17.328644l-2.5773544 21.014954l3.6577988 14.843506l12.009018 11.259491l8.086395 1.7865906l8.5425415 -10.560455l7.782181 -16.420288l-0.39598083 -20.346405l-0.30421448 -18.206879l-8.678986 -3.9040222z" fill-rule="evenodd"/><path fill="#4b261b" d="m235.18504 389.44052l3.1016998 16.958405l7.2372894 11.127563l16.02681 0.53134155l24.295288 -9.010529l13.959015 -19.606781l10.854584 -15.369934l-7.2373047 -21.197998l-24.295288 -9.007751l-18.094604 6.8879395l-12.406799 13.250153z" fill-rule="evenodd"/><path fill="#4b261b" d="m217.18185 205.5585l-4.5023956 20.621994l-1.1579132 18.781723l9.792297 14.484497l22.561905 12.642273l19.431015 2.7018127l7.391083 -12.276306l5.1455994 -23.567993l-8.291504 -21.358505l-12.843262 -16.692703l-11.884201 0.4909973z" fill-rule="evenodd"/><path fill="#4b261b" d="m312.83038 129.39313l-5.42749 29.027695l3.8006592 16.126495l14.111511 11.289963l22.795502 6.98674l15.738312 0.53897095l18.99768 -13.976303l7.0543213 -10.751007l-1.626831 -20.96585l-16.282501 -16.12651l-21.16867 -5.375496l-27.678802 -4.3004z" fill-rule="evenodd"/><path fill="#4b261b" d="m394.06128 255.05249l-11.945984 24.37793l-1.4945679 20.584595l4.4810486 19.50119l7.96402 7.5838013l17.919006 4.873871l10.9505005 -8.667175l4.977478 -17.334412l1.9909973 -24.375092l-3.4855347 -25.461304l-11.946014 -8.124084z" fill-rule="evenodd"/></g></svg>